<svg width="40" height="40" viewBox="0 0 40 40" fill="none" xmlns="http://www.w3.org/2000/svg">
<path d="M5.86147 0.140073C5.69287 0.185527 4.31999 1.57188 2.80259 3.18551C-0.135858 6.29913 -0.473057 6.98095 0.466284 7.7764C1.1166 8.34458 2.03185 8.25367 3.64559 7.48094C4.65719 7.00367 5.42793 6.79913 6.27093 6.79913C8.02918 6.79913 8.05326 6.91277 8.17369 15.1173L8.24595 21.9581L7.64381 22.3445L7.01758 22.7081V30.6626C7.01758 40.3899 6.63221 39.5262 10.9917 39.5262C15.3512 39.5262 14.9658 40.3671 14.9658 30.7763V22.9127L14.3637 22.39L13.7616 21.8672V15.6173C13.7616 9.1173 13.8579 8.27639 14.7972 7.29913C15.5439 6.5264 17.6153 6.73095 17.6153 7.59458C17.6153 8.6173 20.2647 9.25366 21.4208 8.48094C21.9266 8.14003 21.9507 8.00367 21.9507 4.43551C21.9507 0.230982 21.9507 0.230982 20.1443 0.0264374C19.0122 -0.0871984 17.8561 0.390072 17.8561 0.980978C17.8561 1.14007 17.6394 1.45825 17.3985 1.66279C16.7482 2.23097 15.6643 2.04915 15.279 1.34461C14.6046 0.0718917 14.2914 -0.019017 10.0524 0.0037102C7.93284 0.0037102 6.03007 0.0718917 5.86147 0.140073ZM13.6411 2.02643C13.9302 2.86733 15.1585 3.61733 16.2906 3.61733C17.6875 3.61733 18.3378 3.29915 19.0122 2.36733C19.3013 1.93552 19.7107 1.57188 19.9034 1.57188C20.2165 1.57188 20.2647 2.04915 20.2647 4.41278C20.2647 7.07186 20.2406 7.25367 19.8071 7.25367C19.518 7.25367 19.2049 7.00367 19.0122 6.61731C18.5546 5.70823 17.254 5.16277 15.857 5.27641C14.4119 5.39005 13.5448 5.95822 12.9186 7.20822L12.4369 8.16276L10.9917 8.09458L9.57066 8.04912L9.35389 7.20822C9.23346 6.75367 8.89626 6.11731 8.58315 5.79913C8.07735 5.27641 7.81241 5.20823 6.29501 5.20823C4.94622 5.20823 4.34407 5.32186 3.33248 5.79913L2.08002 6.41277L2.56174 5.86732C2.82668 5.57186 3.83828 4.48096 4.82579 3.45824L6.60813 1.57188H10.0524C13.2558 1.57188 13.4966 1.59461 13.6411 2.02643ZM12.0756 15.89V22.0263H10.9917H9.90786V15.89V9.75366H10.9917H12.0756V15.89ZM13.2799 30.7763V37.9353H10.9917H8.70358V30.7763V23.6172H10.9917H13.2799V30.7763Z" fill="#454C55"/>
<path d="M27.5147 0.594625C26.2863 1.18553 25.1061 2.39007 24.4077 3.82188C23.5406 5.5946 23.4924 8.64004 24.3113 10.3218C24.9616 11.6855 26.0696 12.8218 27.322 13.4127L28.2132 13.8446V25.6172C28.2132 38.7081 28.165 38.3899 29.8751 39.4581C30.983 40.1626 33.0062 40.1853 34.0178 39.5035C35.5834 38.4581 35.5593 38.799 35.6316 25.7763L35.7038 13.9582L36.8599 13.3446C38.1606 12.6855 39.3889 11.14 39.7984 9.66276C40.2078 8.20822 39.967 5.07187 39.3167 3.73097C38.1606 1.29917 35.2221 -0.587187 34.2828 0.503716C34.1383 0.662806 33.9697 1.95825 33.9456 3.41279L33.8733 6.00369L32.0187 6.07187L30.14 6.14005V3.61734C30.14 2.23098 30.0196 0.890078 29.8992 0.640079C29.5861 0.0946277 28.6226 0.0719006 27.5147 0.594625ZM28.454 4.50369C28.454 7.75368 28.4059 7.70822 31.9224 7.70822C35.5834 7.70822 35.5352 7.75368 35.6797 4.50369L35.8002 1.93553L36.7877 3.0037C37.9197 4.20824 38.3292 5.39005 38.3292 7.4355C38.3292 9.91276 37.5102 11.2991 35.463 12.2082L34.1142 12.8218L33.9937 24.9809C33.8492 38.9353 33.9456 38.3899 31.9465 38.3899C31.1035 38.3899 30.8144 38.2762 30.405 37.799C29.8992 37.2081 29.8992 36.9808 29.8992 25.299C29.8992 18.7763 29.8269 13.2536 29.7547 13.0491C29.6583 12.8673 29.2489 12.5491 28.8153 12.39C27.3461 11.7991 26.0696 10.5037 25.6601 9.11731C25.2025 7.6855 25.3229 5.82187 25.9251 4.48097C26.2622 3.66279 27.8278 2.02644 28.2614 2.02644C28.3577 2.02644 28.454 3.14007 28.454 4.50369Z" fill="#454C55"/>
<path d="M19.5902 12.3673C18.5063 12.8218 18.0005 14.0036 18.1691 15.6855C18.2414 16.39 18.4581 17.2764 18.6749 17.6627C18.9639 18.1854 19.0603 19.0036 19.0603 20.7763C19.0603 23.1172 19.0362 23.1627 18.5063 23.1627C18.2173 23.1627 17.7115 23.3218 17.4225 23.5263C16.9648 23.8218 16.8926 24.0718 16.8926 25.4127C16.8926 26.5263 16.9889 27.049 17.2539 27.2536C17.567 27.4808 17.6151 28.4354 17.6151 33.1854C17.6151 38.0035 17.6633 38.8672 18.0005 39.1626C18.2895 39.4581 18.9399 39.5262 21.2039 39.5262C23.6606 39.5262 24.0942 39.4581 24.4314 39.1171C24.7927 38.7535 24.8408 37.9808 24.8408 33.0717C24.8408 28.3672 24.889 27.3899 25.2021 27.1172C25.443 26.8899 25.5634 26.3218 25.5634 25.4127C25.5634 23.89 25.0576 23.1627 23.9978 23.1627H23.3957V20.8218C23.3957 19.0491 23.5161 18.2309 23.8774 17.2991C24.7445 15.1855 24.311 12.9809 22.914 12.3218C22.1192 11.9355 20.5777 11.9582 19.5902 12.3673ZM22.4323 14.0491C22.8176 14.7309 22.7213 15.89 22.1914 17.0036C21.8061 17.7991 21.7097 18.4809 21.7097 20.5718C21.7097 23.0036 21.6856 23.1627 21.228 23.1627C20.7704 23.1627 20.7463 23.0036 20.7463 20.6627C20.7463 18.7082 20.6499 17.9354 20.2646 17.0264C19.3493 14.8446 19.7106 13.6173 21.228 13.6173C21.9265 13.6173 22.2396 13.7309 22.4323 14.0491ZM23.8774 25.4354V26.1172H21.228H18.5786V25.4354V24.7536H21.228H23.8774V25.4354ZM23.1548 32.8217V37.9353H21.228H19.3011V32.8217V27.7081H21.228H23.1548V32.8217Z" fill="#454C55"/>
</svg>
