<svg width="40" height="40" viewBox="0 0 40 40" fill="none" xmlns="http://www.w3.org/2000/svg">
<path d="M15.7025 0.377644C8.34867 2.0174 2.49183 7.56133 0.548301 14.7971C-0.187087 17.556 -0.187087 22.0068 0.574565 24.7917C1.96655 29.9973 5.66975 34.7083 10.2659 37.155L11.7367 37.9358L10.8437 38.17C9.68812 38.4824 9.2679 39.1331 9.84571 39.7057C10.2134 40.0701 10.476 40.0961 12.1832 39.7838C14.3368 39.3934 15.1773 38.8207 14.8884 37.9098C14.8096 37.5974 14.3631 36.6344 13.8903 35.7755C13.2337 34.5001 12.9448 34.2138 12.4196 34.2138C11.8418 34.2138 11.763 34.3179 11.763 35.0467C11.763 35.5152 11.7367 35.9056 11.6842 35.9056C11.6316 35.9056 10.9488 35.4892 10.1609 34.9946C6.27382 32.522 3.54238 28.748 2.25545 24.089C1.65138 21.8766 1.67765 17.556 2.30798 15.3436C4.46162 7.74352 10.7387 2.45987 18.434 1.8352C20.4563 1.67904 21.0866 1.28862 20.7452 0.403671C20.5351 -0.116886 18.04 -0.142914 15.7025 0.377644Z" fill="#454C55"/>
<path d="M27.5476 0.898209C26.1031 1.21054 25.5778 1.57493 25.5515 2.1996C25.5515 2.64207 27.3112 6.15583 27.6264 6.33802C27.7839 6.44213 28.1516 6.44213 28.4405 6.36405C29.0183 6.18185 29.1234 5.45308 28.7032 4.64621C28.3092 3.94346 28.6506 4.02155 30.2002 5.06266C33.6145 7.35311 36.0045 10.5285 37.4228 14.719C37.9481 16.2546 38.0268 17.0355 38.0268 20.0287C38.0268 23.9849 37.6066 25.7548 35.8732 28.8781C34.56 31.2206 30.9619 34.7083 28.5193 35.9837C26.3394 37.1029 23.1615 37.9879 21.1917 37.9879C19.432 37.9879 18.6441 38.6125 19.2219 39.5235C19.4058 39.8098 19.9573 39.8619 21.7695 39.7577C30.1739 39.2892 37.843 32.5741 39.5764 24.1411C41.2573 16.0724 37.843 7.82161 30.9881 3.37085C29.5699 2.45988 29.5174 2.38179 30.0952 2.22563C31.4084 1.91329 31.1457 0.481762 29.78 0.533817C29.4123 0.559845 28.4143 0.716015 27.5476 0.898209Z" fill="#454C55"/>
<path d="M17.1475 6.7545C16.7798 7.11889 16.6222 7.61341 16.6222 8.4463C16.6222 9.33125 16.5171 9.61756 16.2282 9.61756C15.9919 9.61756 15.4666 9.79975 15.0726 10.008C14.3635 10.3463 14.2847 10.3463 13.6018 9.61756C12.42 8.39425 11.5007 8.55042 9.84611 10.2162C8.21775 11.8559 8.08643 12.6888 9.24204 13.9121L9.97743 14.693L9.47842 15.7861C9.00567 16.8533 8.92688 16.9053 7.82379 16.9053C6.14291 16.9053 5.854 17.3218 5.854 19.7164C5.854 20.8095 5.95906 21.8506 6.06411 22.0328C6.32675 22.4232 7.56115 22.8917 8.34907 22.8917C8.84808 22.8917 9.08446 23.152 9.53094 24.1151L10.0562 25.3384L9.26831 26.1452C8.06017 27.3946 8.19149 28.2274 9.87237 29.8672C11.527 31.4809 12.2361 31.585 13.5493 30.4398L14.4423 29.659L15.5454 30.1275C16.5959 30.57 16.6222 30.596 16.6222 31.7933C16.6222 33.6673 17.1737 34.0837 19.6425 34.0837C22.0851 34.0837 22.6629 33.6673 22.6629 31.8713C22.6629 30.7521 22.6891 30.7001 23.8973 30.1795L25.1317 29.659L25.9459 30.4398C27.1803 31.6371 27.9682 31.507 29.6753 29.8412C31.3299 28.1754 31.435 27.4987 30.2794 26.1973L29.4915 25.2863L30.0168 24.1411C30.4895 23.0479 30.6208 22.9438 31.7239 22.8397C33.5098 22.6315 33.6937 22.3712 33.6937 19.9766C33.6937 17.2437 33.4836 16.9053 31.8552 16.9053C30.5946 16.9053 30.542 16.8793 30.0168 15.8382L29.4652 14.7971L30.2531 13.8861C31.435 12.5587 31.3299 11.882 29.6753 10.2162C27.9682 8.55042 27.1015 8.42028 25.9721 9.59153L25.263 10.3463L24.0286 9.87783C22.8467 9.43536 22.7942 9.35728 22.6366 8.18603C22.4528 6.52024 21.98 6.23394 19.59 6.23394C18.0142 6.23394 17.5677 6.33805 17.1475 6.7545ZM20.8244 9.04494C20.8244 10.3724 21.1658 10.7368 23.1882 11.5696C25.3155 12.4546 25.7095 12.4286 26.7338 11.4395L27.548 10.6587L28.2571 11.3874C29.1238 12.2984 29.1238 12.4806 28.3096 13.2615C27.5742 13.9642 27.4692 14.9272 28.0207 16.0464C28.2308 16.4368 28.5197 17.0875 28.6773 17.504C28.9925 18.2848 29.8592 18.7273 31.0936 18.7273C31.829 18.7273 31.8552 18.7794 31.8552 19.8985V21.0698H30.542C29.4127 21.0698 29.1763 21.1479 28.9925 21.6424C28.7561 22.2931 27.6793 24.9219 27.4954 25.3904C27.4166 25.5726 27.7318 26.1192 28.1783 26.6398C28.9925 27.5507 29.0187 27.6028 28.5985 28.2535C27.9156 29.2425 27.4954 29.2686 26.4711 28.3836C25.9459 27.9411 25.4994 27.5768 25.4468 27.5768C25.3943 27.5768 24.7115 27.8631 23.9235 28.2274C23.1619 28.5918 22.3214 28.8781 22.0851 28.8781C21.2709 28.8781 20.8244 29.633 20.8244 30.9864V32.2618H19.6425H18.4607V31.0124C18.4607 30.3357 18.3556 29.659 18.2505 29.5028C18.1455 29.3466 17.2263 28.8521 16.202 28.3836C14.1796 27.4726 13.8382 27.4987 12.8402 28.5918C12.1836 29.3206 11.8684 29.2686 11.028 28.4096L10.3189 27.6809L11.2381 26.7959C12.2624 25.8069 12.3674 25.3644 11.7108 24.4534C11.4482 24.1151 11.0542 23.2301 10.8179 22.5013L10.3977 21.1999L9.05819 21.1219L7.69247 21.0438V19.8725C7.69247 18.8054 7.745 18.7273 8.42786 18.7273C9.89864 18.7273 10.2663 18.467 11.0805 16.7492C12.1048 14.6409 12.1048 14.1464 11.1068 13.1313L10.3189 12.3244L11.1856 11.4916L12.0523 10.6587L12.8139 11.4395C13.7069 12.3505 14.416 12.4286 15.8343 11.6998C16.4121 11.4135 17.0161 11.1792 17.1737 11.1792C17.9091 11.1792 18.4607 10.3203 18.4607 9.17508V8.05589H19.6425H20.8244V9.04494Z" fill="#454C55"/>
<path d="M16.753 14.7971C12.6558 17.1135 13.1023 23.2821 17.4621 25.078C18.6702 25.5986 20.8239 25.6246 21.9532 25.1561C24.2119 24.2191 25.5514 22.215 25.5514 19.7684C25.5514 16.3587 23.1351 14.0423 19.5895 14.0423C18.3813 14.0423 17.7773 14.1984 16.753 14.7971ZM21.8219 16.3848C25.2362 18.467 23.7654 23.6725 19.747 23.6725C17.5409 23.6725 15.7287 21.9547 15.7287 19.8204C15.7287 18.3629 16.3853 17.1396 17.5671 16.3587C18.5914 15.682 20.6663 15.708 21.8219 16.3848Z" fill="#454C55"/>
</svg>
