<svg width="76" height="96" viewBox="0 0 76 96" fill="none" xmlns="http://www.w3.org/2000/svg">
<path d="M33 2C31.9 3.1 31 4.4 31 5C31 5.6 25.8 6 17.5 6C5.3 6 3.8 6.2 2 8C0.1 9.9 0 11.3 0 51C0 90.7 0.1 92.1 2 94C3.9 95.9 5.3 96 38 96C70.7 96 72.1 95.9 74 94C75.9 92.1 76 90.7 76 51C76 11.3 75.9 9.9 74 8C72.2 6.2 70.7 6 58.5 6C50.2 6 45 5.6 45 5C45 2.9 40.9 0 38 0C36.3 0 34.1 0.900002 33 2ZM41.8 7.2C42.9 9.5 43.8 10 46.6 10C49.3 10 50 10.4 50 12C50 13.9 49.3 14 38 14C26.7 14 26 13.9 26 12C26 10.4 26.7 10 29.5 10C32 10 33.3 9.5 33.7 8.2C35.5 3.2 39.6 2.7 41.8 7.2ZM22.2 13.7L22.5 17.5H38H53.5L53.8 13.7L54.1 9.9L62.8 10.2L71.5 10.5V51V91.5H38H4.5L4.2 52C4.1 30.3 4.2 11.9 4.5 11.3C4.8 10.4 7.5 10 13.4 10H21.9L22.2 13.7Z" fill="#454C55"/>
<path d="M55.3005 39.5L51.7005 45.1L48.8005 42.3C46.6005 40.2 45.7005 39.9 44.8005 40.8C43.9005 41.7 44.5005 42.9 47.5005 46C49.6005 48.2 51.8005 50 52.2005 50C53.2005 50 62.0005 36.8 62.0005 35.3C62.0005 32.3 58.8005 34.4 55.3005 39.5Z" fill="#454C55"/>
<path d="M14 42C14 44 14.5 44.1 25.8 43.8C35.4 43.6 37.5 43.2 37.5 42C37.5 40.8 35.4 40.4 25.8 40.2C14.5 39.9 14 40 14 42Z" fill="#454C55"/>
<path d="M55.3005 65.5L51.7005 71.1L48.8005 68.3C46.6005 66.2 45.7005 65.9 44.8005 66.8C43.9005 67.7 44.5005 68.9 47.5005 72C49.6005 74.2 51.8005 76 52.2005 76C53.2005 76 62.0005 62.8 62.0005 61.3C62.0005 58.3 58.8005 60.4 55.3005 65.5Z" fill="#454C55"/>
<path d="M14 68C14 70 14.5 70.1 25.8 69.8C35.4 69.6 37.5 69.2 37.5 68C37.5 66.8 35.4 66.4 25.8 66.2C14.5 65.9 14 66 14 68Z" fill="#454C55"/>
</svg>
