<svg width="40" height="40" viewBox="0 0 40 40" fill="none" xmlns="http://www.w3.org/2000/svg">
<path d="M15.1283 0.463115C14.6411 0.89986 14.6155 1.22167 14.6155 5.40523V9.88761H11.5386H8.46169V8.62334C8.46169 7.24415 7.97451 6.11781 7.30785 5.88794C5.97452 5.4512 2.82069 6.07184 1.53864 7.03727C-0.0510934 8.25556 0.000188363 7.61194 0.000188363 22.875C0.000188363 35.3797 0.0514702 36.9198 0.436084 37.6324C0.89762 38.5059 2.23095 39.4253 3.61556 39.7701C4.15401 39.931 10.8719 40 21.6668 40H38.8205L39.4103 39.4943L40 39.0116V25.1507C40 17.5421 39.9231 11.1289 39.8462 10.922C39.5128 10.1634 38.3333 9.88761 35.5128 9.88761H32.8205V5.31328C32.8205 -0.318428 33.077 0.00338376 28.718 0.00338376C24.359 0.00338376 24.6155 -0.318428 24.6155 5.31328V9.88761H23.718H22.8206V5.40523C22.8206 -0.295442 23.0514 0.00338376 18.718 0.00338376C15.9745 0.00338376 15.5899 0.0493569 15.1283 0.463115ZM21.0257 3.10657V4.6007H18.718H16.4104V3.10657V1.61244H18.718H21.0257V3.10657ZM31.077 3.10657C31 4.48576 30.9231 4.6007 30.4103 4.6007C29.6154 4.6007 28.8975 5.12939 29.0001 5.65808C29.077 5.97989 29.359 6.11781 30.0513 6.16378C30.9744 6.23274 30.9744 6.25573 31.077 7.38207L31.1539 8.50841H29.8206C28.2565 8.50841 27.5385 8.96814 27.9488 9.68073C28.1795 10.0255 28.5129 10.1175 29.6154 10.1175H31.0257V11.2668V12.4161H30.1283C28.4872 12.4161 28.6154 13.7953 30.2821 14.0252C31.1282 14.1401 31.1539 14.1631 31.1539 15.1745C31.1539 16.1859 31.1282 16.2089 30.2821 16.3238C28.6154 16.5537 28.4872 17.9329 30.1283 17.9329H31.0257V19.1972V20.4614H29.6154C28.1026 20.4614 27.5129 20.8752 27.9744 21.6567C28.1795 21.9785 28.5385 22.0705 29.6154 22.0705H31.0257V23.3347V24.599H30.1283C28.5129 24.599 28.6154 26.0242 30.2308 26.1621C31 26.231 31.0257 26.277 31.0257 27.3804V28.5067H30.1283C28.5129 28.5067 28.6154 29.9319 30.2308 30.0698C31.0257 30.1388 31.0257 30.1388 31.0257 31.518V32.8742H28.718H26.4103V17.2433V1.61244H28.7949H31.1539L31.077 3.10657ZM21.0257 17.5881V28.9665H18.718H16.4104V17.5881V6.20976H18.718H21.0257V17.5881ZM6.66682 19.2891V31.2191L6.10272 31.3571C5.76939 31.426 5.17965 31.495 4.74376 31.495C4.3335 31.495 3.48735 31.7019 2.89761 31.9547L1.79505 32.3914V20.8062V9.22099L2.38479 8.62334C3.02582 7.95673 4.58991 7.38207 5.84631 7.35908H6.66682V19.2891ZM14.6668 21.0821L14.7437 30.6904L16.2565 32.9431C17.9488 35.4487 18.4616 35.9314 19.0514 35.7245C19.2821 35.6555 20.1796 34.4832 21.077 33.15L22.6924 30.6904L22.7693 21.0821L22.8462 11.4967H23.718H24.6155V22.6222V33.7706L25.1796 34.1154C25.6155 34.3913 26.4616 34.4832 28.718 34.4832C30.9744 34.4832 31.8206 34.3913 32.2564 34.1154L32.8205 33.7706V22.6222V11.4967H35.5128H38.2051V24.9438V38.3909L22.6411 38.4369C4.71811 38.4829 5.10273 38.5059 3.6412 38.0232C2.30787 37.5864 1.79505 36.9428 1.79505 35.7245C1.79505 34.0005 3.00017 33.196 5.8976 33.0121C6.66682 32.9661 7.38477 32.8972 7.48733 32.8972C7.5899 32.8742 7.84631 32.7133 8.05143 32.5064C8.41041 32.1846 8.46169 30.8973 8.46169 21.8176V11.4967H11.5386H14.5899L14.6668 21.0821ZM20.5129 30.7134C20.5129 31.1272 19.0514 32.8742 18.718 32.8742C18.4104 32.8742 16.9232 31.0582 16.9232 30.6904C16.9232 30.6215 17.7437 30.5755 18.718 30.5755C19.718 30.5755 20.5129 30.6445 20.5129 30.7134Z" fill="#454C55"/>
</svg>
