<svg width="76" height="96" viewBox="0 0 76 96" fill="none" xmlns="http://www.w3.org/2000/svg">
<path d="M33 2C31.9 3.1 31 4.4 31 5C31 5.6 25.8 6 17.5 6C5.3 6 3.8 6.2 2 8C0.1 9.9 0 11.3 0 51C0 90.7 0.1 92.1 2 94C3.9 95.9 5.3 96 38 96C70.7 96 72.1 95.9 74 94C75.9 92.1 76 90.7 76 51C76 11.3 75.9 9.9 74 8C72.2 6.2 70.7 6 58.5 6C50.2 6 45 5.6 45 5C45 2.9 40.9 0 38 0C36.3 0 34.1 0.900002 33 2ZM41.8 7.2C42.9 9.5 43.8 10 46.6 10C49.3 10 50 10.4 50 12C50 13.9 49.3 14 38 14C26.7 14 26 13.9 26 12C26 10.4 26.7 10 29.5 10C32 10 33.3 9.5 33.7 8.2C35.5 3.2 39.6 2.7 41.8 7.2ZM22.2 13.7L22.5 17.5H38H53.5L53.8 13.7L54.1 9.9L62.8 10.2L71.5 10.5V51V91.5H38H4.5L4.2 52C4.1 30.3 4.2 11.9 4.5 11.3C4.8 10.4 7.5 10 13.4 10H21.9L22.2 13.7Z" fill="#454C55"/>
<path d="M44.5 52.5L33.8 65L27.2 59.5C20.8 54.2 19 53.4 18.3 55.7C17.9 56.7 32.6 70 34.1 70C35.4 70 58.1 42.8 57.7 41.7C56.8 38.9 54.4 40.8 44.5 52.5Z" fill="#454C55"/>
</svg>
