<svg width="94" height="83" viewBox="0 0 94 83" fill="none" xmlns="http://www.w3.org/2000/svg">
<path d="M82.2 2.3C80.8 3.8 80 5.9 80 8.3V12H87H94V8.2C94 1 86.7 -2.5 82.2 2.3Z" fill="#454C55"/>
<path d="M18.9999 12.1C9.39995 16.5 1.09995 20.5 0.599948 21C-0.100052 21.7 -5.14984e-05 22.4 0.799949 23.2C2.39995 24.8 2.39995 37.4 0.799949 40C-0.200052 41.5 -0.100052 42.6 1.29995 45.4C3.39995 49.9 4.59995 49.9 6.69995 45.4C8.09995 42.6 8.19995 41.5 7.19995 40C5.99995 38 5.49995 28 6.59995 28C6.89995 28 8.59995 29.1 10.4999 30.5C14.8999 33.9 15.5999 38.4 12.3999 42.3C9.29995 46 9.19995 51.7 12.0999 55.4L14.0999 58L12.0999 60.6C8.69995 64.9 9.29995 70.5 13.3999 74.6L16.7999 78L46.1999 77.8C71.4999 77.5 75.5 77.3 75.5 76C75.5 74.7 71.3999 74.4 46.1999 74C18.5999 73.5 16.7999 73.4 15.3999 71.6C13.5999 69.1 13.5999 64.9 15.3999 62.4C16.7999 60.6 18.5999 60.5 46.1999 60C71.3999 59.6 75.5 59.3 75.5 58C75.5 56.7 71.3999 56.4 46.1999 56C18.5999 55.5 16.7999 55.4 15.3999 53.6C13.5999 51.1 13.5999 46.9 15.3999 44.4C16.7999 42.6 18.5999 42.5 46.1999 42C71.3999 41.6 75.5 41.3 75.5 40C75.5 38.8 73.9 38.4 68.4 38.2C61.4 37.9 61.3 37.9 61.8 35.5C62.1 33.8 64.6 31.3 69.2 27.9C73 25.2 76 22.3 75.7 21.7C75.2999 20.5 39.5 3.9 37.5999 4.1C37 4.1 28.5999 7.7 18.9999 12.1ZM54.3 15.4L69.9 22.3L66.2 25.1C62.7 27.8 62.5 27.8 62.2 25.9C61.5 21.8 55.8999 20.6 38 20.6C20.0999 20.6 14.4999 21.8 13.7999 25.9C13.4999 27.8 13.2999 27.8 9.79995 25.1L6.09995 22.4L21.7999 15.3C30.3999 11.4 37.7999 8.3 38.0999 8.4C38.3999 8.4 45.7 11.6 54.3 15.4ZM55.8 25.5C57.7 26.1 58 26.9 58 31.1C58 35.9 58 35.9 54.3 36.7C49.4 37.7 26.5999 37.7 21.7999 36.7C17.9999 35.9 17.9999 35.9 17.9999 31C17.9999 26.1 17.9999 26.1 21.7999 25.5C23.7999 25.1 25.9999 24.7 26.4999 24.4C28.0999 23.8 53.2 24.8 55.8 25.5Z" fill="#454C55"/>
<path d="M80 44.2V72.4L83.2 77.7C85 80.6 86.7 83 87 83C87.3 83 89 80.6 90.8 77.7L94 72.4V44.2C94 16.7 94 16 92 16C90 16 90 16.7 90 43V70H87H84V43C84 16.7 84 16 82 16C80 16 80 16.7 80 44.2Z" fill="#454C55"/>
</svg>
