<svg width="45" height="51" viewBox="0 0 45 51" fill="none" xmlns="http://www.w3.org/2000/svg">
<path d="M21.8073 1.15781C21.6733 1.41192 21.6465 2.6825 21.7269 4.00389C21.8341 5.85893 21.9681 6.44339 22.3165 6.64668C22.6381 6.84998 22.8793 6.82457 23.1741 6.59586C23.4957 6.34175 23.6029 5.7827 23.5761 4.18177C23.5493 3.06367 23.4689 1.84392 23.3617 1.48816C23.1473 0.700403 22.1289 0.497111 21.8073 1.15781Z" fill="#454C55"/>
<path d="M6.36909 6.4942C5.85987 6.9516 6.36909 7.86642 8.03073 9.56898C9.69237 11.2461 9.93357 11.3986 10.4428 11.1445C10.7644 10.992 11.0056 10.6871 11.0056 10.4584C11.0056 10.2297 10.2016 9.21322 9.23676 8.19676C7.62872 6.4942 6.8515 6.01138 6.36909 6.4942Z" fill="#454C55"/>
<path d="M35.8503 8.22216C34.8587 9.28944 34.0547 10.2551 34.0547 10.3821C34.0547 10.5092 34.2423 10.7887 34.4835 11.0174C35.0731 11.5511 35.5555 11.2461 37.646 9.00992C38.9592 7.61228 39.2004 7.23111 38.986 6.87535C38.3696 5.96054 37.6996 6.24007 35.8503 8.22216Z" fill="#454C55"/>
<path d="M19.6901 8.22218C12.3468 9.74687 7.41544 16.5317 8.56787 23.5707C9.07708 26.7471 10.4171 29.1866 12.7756 31.245C15.1876 33.3795 16.0184 34.2689 16.5277 35.3362C16.9297 36.2002 16.9565 36.4035 16.6349 36.5051C15.402 36.9117 14.6516 38.7159 15.2948 39.834C15.4556 40.139 15.4288 40.5456 15.2412 41.0538C14.9196 41.8924 15.1072 42.9342 15.6968 43.5187C15.9112 43.722 16.0988 44.3319 16.0988 44.9417C16.0988 45.7803 16.2597 46.1361 17.0369 46.873C17.5461 47.3558 17.9749 47.8895 17.9749 48.0419C17.9749 48.1944 18.2697 48.7026 18.6449 49.1601C20.5746 51.5487 25.6667 51.193 26.9531 48.5756C27.2211 48.0674 27.8375 47.2796 28.3199 46.8222C29.0704 46.1615 29.2312 45.8311 29.2312 44.9672C29.2312 44.3573 29.392 43.722 29.6332 43.5187C30.2228 42.9342 30.4372 41.8924 30.0888 41.0538C29.8744 40.5456 29.8744 40.1644 30.0888 39.7324C30.5444 38.7668 30.1156 37.3437 29.2044 36.8609C28.7756 36.6322 28.4271 36.3018 28.4271 36.1748C28.4271 35.387 30.196 33.1762 31.7504 32.0073C38.3702 27.0013 38.8258 17.6498 32.7421 11.8814C29.258 8.60335 24.4339 7.23113 19.6901 8.22218ZM24.9699 9.87392C27.3551 10.2805 30.062 11.7035 31.7236 13.4315C34.0553 15.8202 35.1005 18.3359 35.1273 21.5886C35.1273 24.765 33.8677 27.5349 31.3752 29.8219C30.4372 30.6605 29.2848 31.7278 28.8024 32.1598C27.8643 33.0492 27.0067 34.4214 26.7119 35.5903L26.5511 36.3018H22.6918H18.8593L18.2697 34.828C17.7069 33.3287 17.0637 32.5664 14.0352 29.8982C12.0788 28.1702 10.8995 26.0356 10.4171 23.3928C9.37189 17.5228 13.4456 11.6019 19.5829 10.0772C21.6198 9.56899 22.9866 9.51816 24.9699 9.87392ZM27.9983 38.2331C28.2395 38.3094 28.4271 38.6143 28.4271 38.8684C28.4271 39.3258 28.1323 39.3512 22.665 39.3512C17.1709 39.3512 16.9029 39.3258 16.9029 38.8684C16.9029 38.5889 17.0637 38.3094 17.2513 38.2585C17.7337 38.0552 27.4891 38.0552 27.9983 38.2331ZM27.9983 41.2825C28.2395 41.3587 28.4271 41.6383 28.4271 41.8924C28.4271 42.1465 28.2395 42.426 27.9983 42.5022C27.7571 42.5785 25.3719 42.6547 22.665 42.6547C19.9581 42.6547 17.5729 42.5785 17.3317 42.5022C16.8225 42.3244 16.7689 41.4858 17.2513 41.3079C17.7337 41.1046 27.4891 41.1046 27.9983 41.2825ZM27.3015 44.9926C27.2211 45.577 27.1943 45.577 22.665 45.577C18.1357 45.577 18.1089 45.577 18.0285 44.9926L17.9481 44.4335H22.665H27.3819L27.3015 44.9926ZM25.2915 47.8895C24.8627 48.9822 22.1826 49.3379 20.7354 48.4994C19.1273 47.5845 19.5561 47.3558 22.6382 47.4321C24.9967 47.5083 25.4255 47.5845 25.2915 47.8895Z" fill="#454C55"/>
<path d="M20.5467 12.3134C20.3055 12.5167 20.1179 13.025 20.1179 13.4315C20.1179 14.3972 19.0459 14.6767 18.0542 13.9398C17.679 13.6602 17.2502 13.4315 17.1162 13.4315C16.6606 13.4315 14.2217 15.7948 14.2217 16.2268C14.2217 16.4809 14.463 16.9383 14.731 17.2941C15.5082 18.2343 15.2134 19.0221 14.0609 19.0221C12.8817 19.0221 12.3457 19.7844 12.3457 21.4616C12.3457 22.9354 12.8549 23.5961 14.0073 23.5961C14.5166 23.5961 14.7846 23.7994 15.0258 24.3585C15.3206 25.07 15.2938 25.197 14.7846 25.7307C13.9805 26.5438 14.0877 27.0013 15.3206 28.2972C16.5534 29.5678 17.2502 29.7203 18.3222 28.9071C19.2067 28.2718 20.1179 28.6022 20.1179 29.5932C20.1179 30.94 20.5199 31.2196 22.4763 31.2196C24.54 31.2196 24.942 30.9909 24.942 29.7965C24.942 29.1358 25.076 28.9325 25.6924 28.7292C26.282 28.5259 26.5768 28.5768 27.0593 28.9579C28.0509 29.7203 28.7745 29.5678 30.0073 28.2972C31.267 27.0013 31.3206 26.7217 30.5433 25.7815C30.0609 25.1716 30.0073 25.0192 30.3021 24.3585C30.5701 23.774 30.8114 23.5961 31.3742 23.5961C32.5534 23.5961 32.9822 23.0117 32.9822 21.3345C32.9822 19.6319 32.4998 19.0221 31.1866 19.0221C30.1145 19.0221 29.8465 18.2089 30.5969 17.2941C30.865 16.9383 31.1062 16.4809 31.1062 16.2268C31.1062 15.7948 28.6673 13.4315 28.2117 13.4315C28.0777 13.4315 27.6489 13.6602 27.2469 13.9652C26.282 14.7021 25.1028 14.3463 24.9956 13.2791C24.942 12.8725 24.7812 12.3897 24.6204 12.2118C24.1916 11.7544 21.0559 11.8052 20.5467 12.3134ZM23.066 14.1431C23.066 14.88 23.6824 15.4899 24.8348 15.8964C26.5232 16.5063 27.2201 16.5571 27.5953 16.1251C28.4797 15.1087 29.1765 15.9727 28.3457 17.04C27.8097 17.7261 27.8097 17.7515 28.2921 18.8188C28.9889 20.3435 29.4713 20.8009 30.3557 20.8009C30.9186 20.8009 31.1062 20.9279 31.1062 21.3091C31.1062 21.6903 30.9186 21.8173 30.4361 21.8173C29.6589 21.8173 28.6941 22.6305 28.6941 23.2912C28.6941 23.5453 28.5065 23.9773 28.2921 24.2568C27.7561 24.9175 27.7829 25.4512 28.4261 26.2135C28.8817 26.7471 28.9085 26.8996 28.5601 27.1537C28.2653 27.3824 28.0241 27.3316 27.4345 26.8996L26.6573 26.366L25.076 27.0521C23.334 27.7636 23.066 27.9923 23.066 28.8563C23.066 29.2629 22.9052 29.4408 22.5568 29.4408C22.1547 29.4408 21.9939 29.2375 21.9403 28.6022C21.8599 27.8907 21.6723 27.6874 20.3323 27.0521L18.7779 26.2897L17.9738 26.8742C17.3038 27.3316 17.0626 27.3824 16.741 27.1283C16.3926 26.8742 16.4194 26.7471 16.9018 26.2643C17.5986 25.5528 17.5718 25.0446 16.6874 23.342C16.0442 22.1223 15.8566 21.9444 15.1062 21.8681C14.4362 21.8173 14.2217 21.6648 14.2217 21.2837C14.2217 20.9279 14.4094 20.8009 14.9722 20.8009C15.8566 20.8009 16.339 20.3435 17.009 18.8696C17.411 17.9802 17.4378 17.7007 17.143 17.2178C16.9822 16.8875 16.7142 16.5317 16.5534 16.4555C16.2318 16.2268 16.5534 15.7186 17.009 15.7186C17.2234 15.7186 17.5182 15.8964 17.7058 16.0997C18.1614 16.608 18.7511 16.5826 20.2787 15.9473C21.7259 15.3374 21.9939 15.0833 21.9939 14.2447C21.9939 13.8635 22.1547 13.6856 22.53 13.6856C22.8784 13.6856 23.066 13.8635 23.066 14.1431Z" fill="#454C55"/>
<path d="M21.4048 17.2432C20.2255 17.5736 19.1535 18.4376 18.6443 19.4286C18.0279 20.6992 18.1887 22.7321 19.0463 23.8502C19.7431 24.765 21.4584 25.629 22.6644 25.629C23.8704 25.629 25.5857 24.765 26.2825 23.8502C27.2205 22.6051 27.3277 20.6484 26.5237 19.2762C26.1753 18.7171 25.5321 18.031 25.0765 17.7769C24.0848 17.1924 22.3696 16.9383 21.4048 17.2432ZM23.6828 19.0475C25.1033 19.7336 25.6661 21.5886 24.8084 22.7321C23.4148 24.6634 20.1183 23.6978 20.1183 21.3853C20.1451 19.5303 22.0748 18.2597 23.6828 19.0475Z" fill="#454C55"/>
<path d="M0.393026 21.0042C-0.544997 21.8681 0.17862 22.3256 2.75148 22.5034C5.67275 22.6813 6.44997 22.5288 6.44997 21.6649C6.44997 20.8771 6.34277 20.8517 3.2607 20.75C1.38465 20.6738 0.661032 20.7246 0.393026 21.0042Z" fill="#454C55"/>
<path d="M41.291 20.7754C39.1201 20.9025 38.7449 21.0041 38.6645 21.3853C38.4769 22.2747 39.1201 22.5797 40.9962 22.5542C43.6494 22.5542 44.8823 22.2747 44.9895 21.7157C45.0967 21.2583 44.3731 20.4705 43.9978 20.5976C43.9174 20.623 42.6846 20.6992 41.291 20.7754Z" fill="#454C55"/>
<path d="M7.52176 33.5066C5.80652 35.0059 5.56532 35.3362 5.80652 35.7174C6.36933 36.5814 7.06615 36.3527 9.103 34.5739C10.7646 33.1254 11.0594 32.7697 10.8986 32.2868C10.5502 31.3212 9.66582 31.6516 7.52176 33.5066Z" fill="#454C55"/>
<path d="M34.3766 32.0327C33.8138 32.5663 34.0282 32.9221 36.0919 34.6247C38.2359 36.4035 39.2007 36.7084 39.3615 35.6411C39.4151 35.2345 38.9327 34.6501 37.4855 33.4049C35.5291 31.7278 34.9662 31.4736 34.3766 32.0327Z" fill="#454C55"/>
</svg>
