<svg width="40" height="41" viewBox="0 0 40 41" fill="none" xmlns="http://www.w3.org/2000/svg">
<path d="M6.85149 1.32411C6.67327 1.59711 6.53465 2.09761 6.53465 2.43886C6.53465 2.89386 6.39604 3.12137 5.94059 3.32612C5.38614 3.57637 5.28713 3.55362 4.87129 3.12137C4.13861 2.32511 3.42574 2.50711 2.43564 3.66737C1.46535 4.85037 1.36634 5.51012 2.05941 6.26088C2.47525 6.71588 2.49505 6.85238 2.31683 7.44388C2.13861 7.98988 1.9802 8.10363 1.44554 8.10363C0.415842 8.10363 0 8.76338 0 10.3786C0 11.9711 0.415842 12.6536 1.38614 12.6536C1.88119 12.6536 2.0198 12.7901 2.27723 13.4954C2.57426 14.2917 2.57426 14.3372 2.07921 14.9287C1.36634 15.7704 1.46535 16.2709 2.53465 17.4994C3.62376 18.7279 4.07921 18.8189 4.93069 17.9772L5.54455 17.3857V22.3907C5.54455 28.9199 5.36634 28.5787 8.93069 28.5787H11.4851V31.6045C11.4851 34.3345 11.5248 34.6757 11.8812 35.1307C12.1386 35.4265 12.5347 35.6312 12.8911 35.6312C13.5644 35.6312 13.4851 35.7222 17.0099 31.3542C18.8713 29.0564 19.3663 28.5787 19.8218 28.5787H20.396V31.6045C20.396 35.8132 19.9208 35.4947 26.2574 35.6312L31.2871 35.745L32.9703 38.1792C34.8317 40.8865 35.3267 41.2277 36.198 40.477C36.7129 40.0447 36.7327 39.9082 36.7921 37.7015L36.8515 35.4037H37.9802C38.8713 35.4037 39.2277 35.29 39.5644 34.9487C40 34.471 40 34.4027 40 26.8724V19.2739L39.4851 18.8189C39.0099 18.3867 38.6931 18.3412 36.3168 18.3412H33.6634V12.9949V7.62588L33.1683 7.07988L32.6931 6.51113H23.8614H15.0297L15.3069 5.87412C15.6634 5.07787 15.5644 4.78212 14.5941 3.59912C13.6634 2.50711 13.0495 2.37061 12.3564 3.12137C11.9604 3.55362 11.8416 3.57637 11.2079 3.32612C10.5743 3.09862 10.495 2.96211 10.495 2.32511C10.495 1.18761 10 0.823608 8.45545 0.823608C7.32673 0.823608 7.10891 0.891858 6.85149 1.32411ZM9.10891 3.18962C9.10891 4.07687 9.16832 4.14512 10.6931 4.85037C12.0396 5.48737 12.099 5.48737 12.7525 4.89587C13.2673 4.44087 13.3069 4.44087 13.6634 4.80487C14.0396 5.19162 14.0396 5.21437 13.5644 5.87412C12.9505 6.69313 12.9703 6.78413 13.6238 8.33113C14.1188 9.49139 14.2178 9.58239 14.9505 9.69614C15.6436 9.78714 15.7426 9.90089 15.802 10.4241C15.8614 11.0156 15.8218 11.0611 15.0693 11.0611C14.6337 11.0611 14.2178 11.1976 14.1188 11.3341C13.9802 11.5844 13.4653 13.1541 13.1485 14.2689C13.0891 14.4737 13.2673 14.9287 13.5446 15.3154C14.0396 15.9979 14.0396 15.9979 13.6634 16.4074C13.2673 16.8169 13.2475 16.8169 12.8119 16.3392C12.2178 15.7022 11.6238 15.7249 10.297 16.4757C9.28713 17.0444 9.20792 17.1582 9.14851 17.9317C9.08911 18.7279 9.0297 18.7962 8.49505 18.7962C7.9802 18.7962 7.92079 18.7279 7.92079 18.0454C7.92079 17.0672 7.78218 16.8852 6.65347 16.3164C5.44554 15.7022 4.9901 15.7022 4.41584 16.3392C3.9802 16.8169 3.9604 16.8169 3.56436 16.4074C3.18812 15.9979 3.18812 15.9979 3.66337 15.3382C3.94059 14.9742 4.15842 14.5419 4.13861 14.4054C4.13861 14.2462 3.84158 13.4726 3.50495 12.6536C2.91089 11.2659 2.83168 11.1749 2.13861 11.1066C1.44554 11.0384 1.38614 10.9701 1.38614 10.3559C1.38614 9.74164 1.42574 9.69614 2.17822 9.69614C2.9505 9.69614 2.9901 9.67339 3.46535 8.42213C4.07921 6.85238 4.07921 6.35188 3.52475 5.66937C3.10891 5.16887 3.10891 5.14612 3.46535 4.69112C3.82178 4.25887 3.82178 4.25887 4.39604 4.80487C5.06931 5.44187 5.36634 5.48737 6.09901 5.07787C6.39604 4.89587 6.91089 4.62287 7.22772 4.44087C7.70297 4.16787 7.84158 3.94037 7.88119 3.25787C7.94059 2.48436 8 2.41611 8.53465 2.41611C9.0495 2.41611 9.10891 2.48436 9.10891 3.18962ZM32.2772 17.5449V26.9862H25.505H18.7525L17.4257 28.5104C16.7129 29.3749 15.3861 30.9675 14.495 32.0595L12.8713 34.0615V30.9902C12.8713 27.9644 12.8713 27.9189 12.3564 27.4639C11.8812 27.0317 11.5644 26.9862 9.38614 26.9862H6.93069V23.6874V20.3887H8.39604C10.099 20.3887 10.495 20.1157 10.495 18.9327C10.495 18.3639 10.6139 18.1364 10.9901 17.9317C11.703 17.5449 11.9604 17.5904 12.3762 18.1137C12.9307 18.8189 13.5842 18.6824 14.5941 17.5904C15.6238 16.4757 15.7624 15.6794 15.0891 14.8604C14.7129 14.4054 14.6931 14.2462 14.8911 13.4954C15.0891 12.7219 15.1683 12.6536 15.8614 12.6536C16.4158 12.6536 16.6931 12.5171 16.9109 12.1531C17.3069 11.5161 17.3267 9.55964 16.9505 8.71788L16.6535 8.10363H24.4752H32.2772V17.5449ZM38.6139 26.8724V33.8112H37.4653C35.7426 33.8112 35.4851 34.2207 35.4059 36.9507L35.3465 39.0665L33.604 36.5412L31.8614 34.0387H26.8515C24.099 34.0387 21.802 33.9932 21.7624 33.9477C21.7228 33.9022 21.703 32.6737 21.7426 31.2177L21.802 28.5787H27.3267C34.297 28.5787 33.6634 29.0564 33.6634 23.7557V19.9337H36.1386H38.6139V26.8724Z" fill="#454C55"/>
<path d="M7.82217 6.26089C6.71326 6.57939 5.96079 7.19364 5.44594 8.17189C3.98059 11.0612 5.74297 14.5874 8.61425 14.5647C10.1984 14.5192 11.3469 13.6319 11.9806 11.9257C13.0697 8.87715 10.5945 5.48739 7.82217 6.26089ZM9.40633 7.96714C10.1786 8.35389 10.8915 9.51415 10.8915 10.4014C10.8915 11.3342 10.0994 12.4944 9.18851 12.8584C8.47564 13.1314 8.31722 13.1314 7.66376 12.7674C6.23801 11.9939 5.90138 10.0601 6.93108 8.69515C7.46574 8.01264 7.72316 7.85339 8.57465 7.67139C8.65386 7.67139 9.03009 7.78514 9.40633 7.96714Z" fill="#454C55"/>
<path d="M21.4851 12.3124C20.8911 12.9722 20.8514 13.6319 21.3861 14.2462C21.7821 14.7012 22.6732 14.8377 23.0891 14.5192C23.3465 14.3144 23.7623 13.4727 23.7623 13.1087C23.7623 12.6764 22.8118 11.7437 22.3762 11.7437C22.1584 11.7437 21.7425 11.9939 21.4851 12.3124Z" fill="#454C55"/>
<path d="M26.4751 11.9939C25.7029 12.5172 25.6633 13.9504 26.4157 14.5192C26.8316 14.8377 27.7227 14.7012 28.1187 14.2462C28.6534 13.6319 28.6137 12.9722 28.0197 12.3124C27.5048 11.6982 27.0494 11.6072 26.4751 11.9939Z" fill="#454C55"/>
<path d="M18.0793 18.4777C18.0199 18.6824 18.0397 19.0237 18.1585 19.2284C18.3367 19.5469 19.01 19.5924 23.2872 19.6607C26.0001 19.6834 28.4159 19.6607 28.6734 19.5924C29.1882 19.4559 29.2872 18.4777 28.7922 18.2502C28.614 18.1819 26.1783 18.1137 23.3466 18.1137C18.7724 18.1137 18.1981 18.1592 18.0793 18.4777Z" fill="#454C55"/>
<path d="M18.2373 22.0722C18.0987 22.2542 18.0393 22.6182 18.1185 22.8912C18.2373 23.3234 18.3759 23.3462 23.5838 23.3462C28.3363 23.3462 28.9304 23.3007 29.0492 22.9822C29.1086 22.7774 29.0888 22.4362 28.97 22.2314C28.7918 21.9129 28.0987 21.8674 23.6234 21.7992C19.2868 21.7537 18.4353 21.7992 18.2373 22.0722Z" fill="#454C55"/>
</svg>
