<svg width="40" height="40" viewBox="0 0 40 40" fill="none" xmlns="http://www.w3.org/2000/svg">
<path d="M23.5615 13.7327C23.1 14.0214 23.078 14.1863 23.078 17.011C23.078 20.7636 22.9241 20.6193 26.8142 20.6193C30.7043 20.6193 30.5505 20.7636 30.5505 17.011C30.5505 13.2585 30.7043 13.4028 26.8142 13.4028C24.6824 13.4028 23.9351 13.4647 23.5615 13.7327ZM29.012 17.011V19.176H26.8142H24.6164V17.011V14.8461H26.8142H29.012V17.011Z" fill="#454C55"/>
<path d="M23.5615 30.2275C23.1 30.5162 23.078 30.6811 23.078 33.5059C23.078 37.2585 22.9241 37.1141 26.8142 37.1141C30.7043 37.1141 30.5505 37.2585 30.5505 33.5059C30.5505 29.7533 30.7043 29.8976 26.8142 29.8976C24.6824 29.8976 23.9351 29.9595 23.5615 30.2275ZM29.012 33.5059V35.6708H26.8142H24.6164V33.5059V31.3409H26.8142H29.012V33.5059Z" fill="#454C55"/>
<path d="M14.1108 21.9801C13.6493 22.2688 13.6273 22.4337 13.6273 25.2585C13.6273 29.011 13.4734 28.8667 17.3636 28.8667C21.2537 28.8667 21.0998 29.011 21.0998 25.2585C21.0998 21.5059 21.2537 21.6502 17.3636 21.6502C15.2317 21.6502 14.4844 21.7121 14.1108 21.9801ZM19.5614 25.2585V27.4234H17.3636H15.1658V25.2585V23.0935H17.3636H19.5614V25.2585Z" fill="#454C55"/>
<path d="M23.5615 21.9801C23.1 22.2688 23.078 22.4337 23.078 25.2585C23.078 29.011 22.9241 28.8667 26.8142 28.8667C30.7043 28.8667 30.5505 29.011 30.5505 25.2585C30.5505 21.5059 30.7043 21.6502 26.8142 21.6502C24.6824 21.6502 23.9351 21.7121 23.5615 21.9801ZM29.012 25.2585V27.4234H26.8142H24.6164V25.2585V23.0935H26.8142H29.012V25.2585Z" fill="#454C55"/>
<path d="M4.66012 30.2275C4.19859 30.5162 4.17661 30.6811 4.17661 33.5059C4.17661 37.2585 4.02276 37.1141 7.91287 37.1141C11.803 37.1141 11.6491 37.2585 11.6491 33.5059C11.6491 29.7533 11.803 29.8976 7.91287 29.8976C5.781 29.8976 5.03375 29.9595 4.66012 30.2275ZM10.1107 33.5059V35.6708H7.91287H5.71507V33.5059V31.3409H7.91287H10.1107V33.5059Z" fill="#454C55"/>
<path d="M14.1108 30.2275C13.6493 30.5162 13.6273 30.6811 13.6273 33.5059C13.6273 37.2585 13.4734 37.1141 17.3636 37.1141C21.2537 37.1141 21.0998 37.2585 21.0998 33.5059C21.0998 29.7533 21.2537 29.8976 17.3636 29.8976C15.2317 29.8976 14.4844 29.9595 14.1108 30.2275ZM19.5614 33.5059V35.6708H17.3636H15.1658V33.5059V31.3409H17.3636H19.5614V33.5059Z" fill="#454C55"/>
<path d="M4.66012 21.9801C4.19859 22.2688 4.17661 22.4337 4.17661 25.2585C4.17661 29.011 4.02276 28.8667 7.91287 28.8667C11.803 28.8667 11.6491 29.011 11.6491 25.2585C11.6491 21.5059 11.803 21.6502 7.91287 21.6502C5.781 21.6502 5.03375 21.7121 4.66012 21.9801ZM10.1107 25.2585V27.4234H7.91287H5.71507V25.2585V23.0935H7.91287H10.1107V25.2585Z" fill="#454C55"/>
<path d="M14.1108 13.7327C13.6493 14.0214 13.6273 14.1863 13.6273 17.011C13.6273 20.7636 13.4734 20.6193 17.3636 20.6193C21.2537 20.6193 21.0998 20.7636 21.0998 17.011C21.0998 13.2585 21.2537 13.4028 17.3636 13.4028C15.2317 13.4028 14.4844 13.4647 14.1108 13.7327ZM19.5614 17.011V19.176H17.3636H15.1658V17.011V14.8461H17.3636H19.5614V17.011Z" fill="#454C55"/>
<path d="M4.66012 13.7327C4.19859 14.0214 4.17661 14.1863 4.17661 17.011C4.17661 20.7636 4.02276 20.6193 7.91287 20.6193C11.803 20.6193 11.6491 20.7636 11.6491 17.011C11.6491 13.2585 11.803 13.4028 7.91287 13.4028C5.781 13.4028 5.03375 13.4647 4.66012 13.7327ZM10.1107 17.011V19.176H7.91287H5.71507V17.011V14.8461H7.91287H10.1107V17.011Z" fill="#454C55"/>
<path d="M5.43353 0.598801C4.9711 1.05389 4.85549 1.41317 4.85549 2.39521V3.59281H3.37572C1.7341 3.59281 0.763006 3.88024 0.323699 4.50299C0.0693642 4.83832 0.0231214 8.33533 0 21.8204C0 38.5868 0 38.7545 0.485549 39.3772L0.947977 40H17.4798H34.0116L34.5665 39.4012C35.0289 38.9461 35.1445 38.5868 35.1445 37.6048V36.4072H36.9711C38.4277 36.4072 38.9133 36.3114 39.3295 35.9521L39.8844 35.497L39.9538 18.4431L40 1.41317L39.3295 0.694609L38.659 -1.49012e-06H22.3121H5.98844L5.43353 0.598801ZM38.3353 4.23952L38.4046 6.70659H36.763H35.1445V5.89221C35.1445 5.36527 34.9364 4.81437 34.5896 4.38323L34.0347 3.71257H20.2543H6.47399V2.68263V1.67665L22.3815 1.72455L38.2659 1.79641L38.3353 4.23952ZM33.4798 7.95209L33.5491 10.5389H17.5723H1.6185V7.90419V5.26946L17.526 5.31736L33.4104 5.38922L33.4798 7.95209ZM38.3353 21.6048L38.3815 34.7305H36.763H35.1445V21.5569V8.35928L36.7168 8.43114L38.2659 8.50299L38.3353 21.6048ZM33.526 25.2695V38.3234H17.5723H1.6185V25.2695V12.2156H17.5723H33.526V25.2695Z" fill="#454C55"/>
<path d="M4.43387 7.40481C4.11018 7.74014 4.29515 8.67427 4.73445 8.91379C5.38185 9.27308 6.23734 8.38685 5.89052 7.71619C5.65931 7.2611 4.75757 7.06948 4.43387 7.40481Z" fill="#454C55"/>
<path d="M8.01789 7.52458C7.27801 8.29104 8.20286 9.44074 9.12772 8.9138C9.91384 8.48266 9.56702 7.23715 8.66529 7.23715C8.4572 7.23715 8.17974 7.35691 8.01789 7.52458Z" fill="#454C55"/>
<path d="M11.6009 7.40481C11.2541 7.74014 11.4622 8.67427 11.9478 8.93775C12.3639 9.17727 12.5027 9.12936 12.8726 8.67427C13.1732 8.26709 13.2194 8.05152 13.0576 7.69224C12.8264 7.2611 11.9015 7.06948 11.6009 7.40481Z" fill="#454C55"/>
</svg>
