<svg width="40" height="40" viewBox="0 0 40 40" fill="none" xmlns="http://www.w3.org/2000/svg">
<path d="M16.4861 0.506026C15.9093 0.963857 15.8612 1.13253 15.8612 2.77109V4.53012L14.5635 4.93976C13.8425 5.18072 12.9533 5.54217 12.5688 5.78313L11.8959 6.21687L10.6943 5.03615C9.97335 4.33735 9.18029 3.80723 8.69965 3.71084C7.97868 3.56627 7.81046 3.68675 5.88788 5.56627C3.22031 8.21687 3.17225 8.48193 4.90256 10.3133L6.24837 11.7349L5.5274 13.2771C5.14289 14.1205 4.80644 14.9398 4.80644 15.0843C4.80644 15.2771 4.13353 15.3976 2.90789 15.4458C0.0961287 15.5904 0 15.7108 0 19.4217C0 22.3133 0 22.3855 0.624837 22.8675C1.12951 23.2771 1.61016 23.3735 2.88386 23.3735H4.49402L4.7824 24.3855C4.95063 24.9639 5.38321 25.9518 5.71966 26.5783L6.34449 27.7349L5.11885 28.988C3.82112 30.3133 3.4366 31.0843 3.79708 31.6867C3.89321 31.9036 4.8545 32.9398 5.88788 33.9759C8.26707 36.4096 8.60352 36.4578 10.5742 34.5542L11.9921 33.2048L12.665 33.6867C13.0254 33.9518 13.9146 34.3614 14.6116 34.6024L15.8612 35.0602V37.0361C15.8612 38.8675 15.9093 39.0361 16.4861 39.494C17.0388 39.9277 17.4714 40 19.7544 40C22.2057 40 22.398 39.9759 22.9507 39.3976C23.5035 38.8675 23.5515 38.6265 23.5515 36.6747C23.5515 34.988 23.4554 34.4578 23.167 34.1928C22.9027 33.9759 22.6864 33.9518 22.398 34.1446C22.0856 34.3373 21.9654 34.8434 21.9173 36.3614L21.8452 38.3133H19.7064H17.5435V36.6265C17.5435 34.3614 17.159 33.6627 15.7411 33.253C15.1403 33.0843 14.155 32.6265 13.5541 32.2651C11.9921 31.253 11.4874 31.3494 9.82916 32.9398L8.38723 34.3133L7.18562 33.1084C5.26305 31.2289 5.26305 31.2289 6.82514 29.6627C7.57014 28.9157 8.17094 28.1205 8.17094 27.9036C8.17094 27.6627 7.81046 26.7952 7.35385 25.9759C6.89723 25.1325 6.39256 23.9759 6.24837 23.3735C5.86385 21.9036 5.50337 21.6867 3.4366 21.6867H1.68225V19.3976V17.1084H3.55676C5.71966 17.1084 5.91192 16.988 6.60885 15.0602C6.84917 14.3855 7.23368 13.5181 7.47401 13.1084C8.219 11.8554 8.07481 11.2048 6.68094 9.73494L5.43127 8.40964L6.84917 6.98795C7.64223 6.19277 8.38723 5.54217 8.53142 5.54217C8.65158 5.56627 9.25239 6.04819 9.85319 6.6506C11.2471 8.0241 11.6796 8.12048 13.1216 7.39759C13.7704 7.08434 14.8759 6.62651 15.5728 6.40964C17.1349 5.87952 17.5435 5.20482 17.5435 3.13253V1.68675H19.7064H21.8452L21.9173 3.42169L21.9894 5.18072H22.7104H23.4314L23.5035 3.10844C23.5756 1.08434 23.5515 0.987953 22.9267 0.506026C22.374 0.0722906 21.9654 1.49012e-06 19.7064 1.49012e-06C17.4714 1.49012e-06 17.0388 0.0722906 16.4861 0.506026Z" fill="#454C55"/>
<path d="M30.6409 0.506021C30.2323 0.602406 29.5834 1.03614 29.1989 1.44578C28.526 2.14457 28.478 2.33735 28.478 3.9518V5.71084L26.8197 7.42168L25.1856 9.10843L20.8117 9.20481C16.7022 9.2771 16.3898 9.3012 15.1161 9.90361C11.5593 11.5904 9.85303 14.6988 9.85303 19.5181C9.85303 24.1205 11.1988 26.6988 14.4191 28.3614C15.6928 29.012 15.8611 29.0361 20.0667 29.1084L24.3925 29.1807L26.4833 31.253C28.5741 33.3494 28.5741 33.3494 28.4299 34.3614C28.2617 35.6867 28.4539 36.4096 29.223 37.3253C30.4005 38.747 32.6355 38.7711 33.9573 37.3976C35.3752 35.9277 35.2791 33.8795 33.717 32.5301C32.8759 31.7831 32.7797 31.759 31.2657 31.8795L29.6796 32.0241L27.4446 29.8072L25.2336 27.5904L20.5954 27.4699C16.4859 27.3494 15.8851 27.2771 15.0199 26.8193C12.7129 25.5904 11.7275 23.6626 11.5833 20.0723C11.4392 16.6024 12.04 14.6506 13.7703 12.8916C15.5967 11.0602 16.4619 10.8434 21.6048 10.8434H25.8104L27.781 8.84337L29.7757 6.86747H31.458C32.996 6.86747 33.1883 6.79518 33.8612 6.14457C35.6155 4.48192 35.207 1.66265 33.0921 0.698792C31.9867 0.216864 31.6983 0.192768 30.6409 0.506021ZM32.7076 2.6265C33.5247 3.46988 33.5728 3.80723 32.8999 4.67469C32.3231 5.42168 31.1696 5.51807 30.4726 4.89156C29.7997 4.28915 29.8959 3.03614 30.6649 2.43373C31.5301 1.75903 31.8665 1.80723 32.7076 2.6265ZM32.996 34.2651C33.4046 34.8193 33.4286 35.012 33.1883 35.6145C32.8518 36.4096 31.9386 36.9398 31.3138 36.6988C30.0641 36.2651 29.6796 35.0843 30.4246 34.0241C30.9773 33.2289 32.3231 33.3735 32.996 34.2651Z" fill="#454C55"/>
<path d="M35.7118 8.19277C34.8706 8.45784 33.9094 9.32531 33.621 10.0482C33.4287 10.5542 33.2605 10.6024 31.4821 10.6024H29.5355L28.2858 11.9518C27.5889 12.6988 26.94 13.4458 26.8439 13.6386C26.6997 13.9036 25.8105 13.9759 22.446 13.9759C17.8559 13.9759 17.183 14.1205 16.0534 15.3253C15.1402 16.3133 14.8999 17.1325 14.8999 19.1325C14.8999 21.0843 15.2844 22.2651 16.1496 23.0361C17.207 24.0241 17.6396 24.0964 22.0615 24.0964H26.3873L27.4207 25.3494C29.8479 28.3615 29.944 28.4337 31.7705 28.4337C33.2605 28.4337 33.4287 28.4819 33.621 28.9639C34.4381 31.0602 37.4181 31.5904 39.0042 29.9277C41.119 27.7349 39.653 24.3374 36.601 24.3374C35.4714 24.3374 34.2698 25.0361 33.7652 26.0241C33.4047 26.6988 33.3086 26.747 32.0108 26.747L30.641 26.7229L29.4394 25.1566C27.2524 22.2892 27.5649 22.4096 22.422 22.4096H17.976L17.2791 21.7108C16.6302 21.0602 16.5822 20.8675 16.5822 19.2771C16.5822 17.3494 16.9907 16.3614 17.952 15.9277C18.2884 15.759 20.2591 15.6627 22.8786 15.6627H27.2284L28.2858 14.506C28.8866 13.8795 29.5355 13.1325 29.7278 12.8193C30.0402 12.3614 30.3045 12.2892 31.7224 12.2892C33.3326 12.2892 33.3566 12.3133 33.8373 13.1084C34.5342 14.2651 35.5916 14.7711 37.0816 14.6265C39.1003 14.4337 40.4221 12.506 39.8693 10.4819C39.653 9.68675 38.2111 8.19277 37.6584 8.19277C37.4902 8.19277 37.1537 8.14458 36.8893 8.07229C36.625 8.0241 36.0963 8.07229 35.7118 8.19277ZM37.3219 9.90362C38.139 10.2892 38.4995 11.1566 38.1871 11.9759C37.8747 12.7952 37.5622 13.0121 36.6731 13.0121C35.111 13.0121 34.4861 11.1084 35.7118 10.1446C36.4568 9.56627 36.5529 9.54217 37.3219 9.90362ZM37.7785 26.4337C38.6197 27.4458 38.4274 28.6265 37.346 29.1325C35.8079 29.8313 34.3419 27.7349 35.4955 26.4578C36.0002 25.9036 37.2979 25.8795 37.7785 26.4337Z" fill="#454C55"/>
<path d="M35.8079 15.9518C34.8947 16.1928 33.7411 17.1807 33.5249 17.8795C33.3807 18.265 32.9961 18.3132 29.4875 18.3614L25.5942 18.4337V19.1566V19.8795L29.4875 20L33.3807 20.1205L33.9334 20.9638C34.7024 22.1205 35.4474 22.4578 36.9615 22.3373C37.9468 22.265 38.3794 22.0964 38.9321 21.5663C40.3981 20.1446 40.35 18 38.8119 16.6506C38.3313 16.241 37.8026 15.9036 37.6103 15.9036C37.4421 15.9036 37.1537 15.8554 36.9615 15.8072C36.7932 15.759 36.2645 15.8072 35.8079 15.9518ZM37.9708 18.265C39.1484 19.7349 36.9374 21.5903 35.5195 20.3132C34.9668 19.8072 34.9428 18.506 35.5195 18.0241C36.4087 17.2289 37.2498 17.3253 37.9708 18.265Z" fill="#454C55"/>
<path d="M19.2981 18.4819C18.8895 18.6265 18.9136 19.3976 19.3221 19.7349C19.8508 20.1928 22.8308 19.9759 23.1432 19.4699C23.6239 18.7229 22.951 18.3133 21.1726 18.3374C20.3074 18.3374 19.4423 18.4096 19.2981 18.4819Z" fill="#454C55"/>
</svg>
