<svg width="40" height="41" viewBox="0 0 40 41" fill="none" xmlns="http://www.w3.org/2000/svg">
<path d="M0.361582 0.613459C0.0451977 1.05302 0 2.96511 0 16.9651C0 32.042 0.0225989 32.8332 0.40678 33.1629C0.79096 33.4926 1.78531 33.5365 10.0113 33.5365C18.5085 33.5365 19.774 33.6025 18.9831 34.086C18.8701 34.1519 18.7571 34.5036 18.7571 34.8332C18.7571 35.2948 19.096 35.7563 20.113 36.7014C21.6271 38.108 21.9661 38.1519 23.1412 37.053L23.7966 36.4376L24.7684 36.8992C25.7401 37.3387 25.7627 37.4047 25.7627 38.3717C25.7627 39.8442 26.1695 40.1299 28.2034 40.1299C30.2147 40.1299 30.7345 39.7563 30.7345 38.2838C30.7345 37.3607 30.7571 37.3168 31.774 36.9431L32.8136 36.5695L33.4011 37.119C34.5311 38.1519 34.8927 38.086 36.3842 36.7014C37.9209 35.2728 38.1017 34.6135 37.1751 33.7563C36.4972 33.1409 36.4972 33.075 36.9718 31.8442C37.3333 30.9651 37.4011 30.8992 38.2147 30.8992C39.6384 30.8992 40 30.3717 40 28.2838C40 26.7234 39.9548 26.4816 39.5028 26.1959C39.2316 25.9981 38.5763 25.8442 38.0791 25.8442C37.2429 25.8442 37.1525 25.7783 36.8136 24.9871C36.4294 24.1299 36.4294 24.1299 37.0847 23.5146C38.1017 22.5695 37.9887 21.8442 36.5424 20.4157C35.8418 19.7563 35.1186 19.2508 34.8475 19.2508C34.5763 19.2508 34.0339 19.5365 33.6045 19.8882L32.8588 20.5475L31.7966 20.1739C30.7571 19.8223 30.7345 19.7783 30.7345 18.8992C30.7345 18.0201 30.2373 17.2728 29.6497 17.2728C29.4463 17.2728 29.3785 15.2288 29.3785 9.18489C29.3785 2.23983 29.3333 1.03104 29.0169 0.613459L28.678 0.129943H14.6893H0.700565L0.361582 0.613459ZM27.7966 9.4706V17.2728H27.209C26.1243 17.2728 25.7627 17.6244 25.7627 18.7673C25.7627 19.7783 25.7401 19.8003 24.7458 20.2179L23.7288 20.6135L22.9379 19.9321C22.4859 19.5585 21.9661 19.2508 21.7401 19.2508C21.1751 19.2508 18.7571 21.6684 18.7571 22.2618C18.7571 22.5255 19.0508 23.075 19.4124 23.4706C20.0452 24.1739 20.0452 24.2179 19.7288 25.0091L19.3898 25.8223L15.8418 25.6904C12.3842 25.5585 12.2486 25.5805 11.7966 26.0201C11.3672 26.4376 11.2994 26.7673 11.2994 28.1959C11.2994 30.6135 11.3898 30.6794 14.6667 30.7014C18.2599 30.7234 19.2316 30.8772 19.4576 31.4926L19.6384 31.9981H10.6215H1.58192V16.8332V1.6684H14.6893H27.7966V9.4706ZM29.1525 19.6684C29.1525 20.6574 29.3785 20.8992 31.1412 21.6244C33.1751 22.4596 33.1751 22.4596 34.0339 21.6464L34.8023 20.9212L35.3672 21.4486C36.0678 22.086 36.0678 22.2179 35.3672 23.031C35.0508 23.3827 34.8023 23.8662 34.8023 24.086C34.8023 24.5695 35.9322 26.9871 36.2486 27.2069C36.3842 27.2948 36.9266 27.3827 37.4689 27.3827H38.4181V28.3717V29.3607H37.4689C36.2712 29.3607 36 29.5146 35.7966 30.3497C35.7062 30.7234 35.4576 31.3827 35.2316 31.8223C34.6667 32.9212 34.6893 33.3827 35.3898 34.1959L36 34.8772L35.3446 35.5365L34.7119 36.1739L34.0113 35.5146C33.2429 34.7893 32.6554 34.7014 31.9774 35.1629C31.7288 35.3168 31.1186 35.5805 30.6215 35.7343C29.4463 36.086 29.1525 36.4816 29.1525 37.6464V38.5915H28.2486C27.3672 38.5915 27.3446 38.5695 27.3446 37.8223C27.3446 36.6574 26.9153 35.9981 26.0113 35.7124C25.5593 35.5585 24.9944 35.3168 24.7458 35.1629C24.0452 34.6794 23.2316 34.8113 22.4859 35.5146L21.7853 36.1739L21.1299 35.5146L20.4746 34.8552L21.1977 34.1299C22.0113 33.3168 22.0791 32.8772 21.5593 32.108C21.3785 31.8223 21.0395 31.119 20.8136 30.5255C20.4294 29.4926 20.4068 29.4706 19.322 29.3607L18.1921 29.2508L18.1243 28.3058L18.0565 27.3827H19.0282C20.3164 27.3827 20.5198 27.2288 21.1525 25.7124C21.8305 24.064 21.8305 23.6244 21.1299 22.9871C20.4068 22.3277 20.4294 22.042 21.1525 21.4706L21.7627 21.0091L22.5311 21.6684C23.435 22.4376 23.435 22.4376 24.678 21.9102C25.2203 21.6904 25.9209 21.3827 26.2825 21.2508C26.9379 21.0091 27.3446 20.2618 27.3446 19.3387C27.3446 18.8772 27.435 18.8113 28.2486 18.8113C29.1525 18.8113 29.1525 18.8113 29.1525 19.6684ZM16.4972 28.1519V29.1409H14.6893H12.8814V28.1519V27.1629H14.6893H16.4972V28.1519Z" fill="#454C55"/>
<path d="M4.17963 3.91017C3.93104 4.04203 3.65986 4.26181 3.56946 4.39368C3.47907 4.52555 3.38867 5.93214 3.38867 7.51456C3.38867 10.0201 3.43387 10.4376 3.79545 10.7453C4.17963 11.075 5.26438 11.119 14.7559 11.119C24.948 11.119 25.3096 11.097 25.5356 10.7014C25.8971 10.0201 25.8293 4.70137 25.4452 4.1739C25.1288 3.7783 24.722 3.75632 14.8689 3.71236C7.47907 3.66841 4.49602 3.71236 4.17963 3.91017ZM24.1796 7.38269V9.5805H14.5751H4.97059V7.38269V5.18489H14.5751H24.1796V7.38269Z" fill="#454C55"/>
<path d="M4.36042 13.3168C3.63726 13.6025 3.38867 14.2179 3.38867 15.7783C3.38867 18.042 3.54686 18.1519 6.8689 18.1519C8.69941 18.1519 9.71636 18.064 9.89715 17.8882C10.0553 17.7343 10.1683 16.8992 10.1683 15.7124C10.1683 14.2179 10.1005 13.7563 9.78415 13.5146C9.35477 13.1409 5.12879 12.9871 4.36042 13.3168ZM8.58641 15.6244V16.6135H6.7785H4.97059V15.7783C4.97059 15.3168 5.03839 14.8552 5.12879 14.7893C5.19658 14.7014 6.01014 14.6354 6.93669 14.6354H8.58641V15.6244Z" fill="#454C55"/>
<path d="M12.2028 13.2508C11.5022 13.4926 11.2988 14.064 11.2988 15.7563C11.2988 18.108 11.344 18.1519 14.6661 18.1519C17.9881 18.1519 18.0785 18.086 18.0785 15.7124C18.0785 13.9541 17.9881 13.7343 17.2423 13.3387C16.7452 13.097 12.8582 13.031 12.2028 13.2508ZM16.4966 15.6244V16.6135H14.6887H12.8807V15.6244V14.6354H14.6887H16.4966V15.6244Z" fill="#454C55"/>
<path d="M19.6588 13.2508C18.9583 13.5146 18.7549 14.064 18.7549 15.7563C18.7549 18.108 18.8001 18.1519 22.1221 18.1519C25.4441 18.1519 25.5345 18.086 25.5345 15.7124C25.5345 13.2948 25.4441 13.2069 22.4385 13.1629C21.1052 13.1409 19.8396 13.1629 19.6588 13.2508ZM23.9526 15.6244V16.6135H22.1447H20.3368V15.6244V14.6354H22.1447H23.9526V15.6244Z" fill="#454C55"/>
<path d="M3.75025 20.1739C3.50167 20.5036 3.38867 21.1629 3.38867 22.1739C3.38867 23.4706 3.45647 23.7343 3.95364 24.1959C4.45082 24.7014 4.65421 24.7453 6.8237 24.7453C10.0101 24.7453 10.1683 24.6354 10.1683 22.3058C10.1683 19.6464 10.2361 19.6904 6.8915 19.6904C4.24743 19.6904 4.06664 19.7124 3.75025 20.1739ZM8.58641 22.2179V23.2288L6.8463 23.1629L5.08359 23.097L5.01579 22.1519L4.94799 21.2288H6.7559H8.58641V22.2179Z" fill="#454C55"/>
<path d="M11.683 20.086C11.3892 20.3937 11.2988 20.9212 11.2988 22.13C11.2988 24.5036 11.4344 24.6135 14.1237 24.7014C17.7621 24.8333 18.0785 24.6355 18.0785 22.108C18.0785 19.7124 18.0333 19.6904 14.7113 19.6904C12.4062 19.6904 11.9994 19.7563 11.683 20.086ZM16.4966 22.2179V23.2069H14.6887H12.8807V22.2179V21.2289H14.6887H16.4966V22.2179Z" fill="#454C55"/>
<path d="M3.86325 26.1959C3.47907 26.6574 3.38867 27.097 3.38867 28.2838C3.38867 30.5256 3.59206 30.6794 6.8689 30.6794C10.1457 30.6794 10.1683 30.6574 10.1683 28.1519C10.1683 25.7124 10.0327 25.6245 6.7559 25.6245C4.40562 25.6245 4.31523 25.6464 3.86325 26.1959ZM8.58641 28.1519V29.1409H6.7785H4.97059V28.3058C4.97059 27.8442 5.03839 27.3827 5.12879 27.3168C5.19658 27.2288 6.01014 27.1629 6.93669 27.1629H8.58641V28.1519Z" fill="#454C55"/>
<path d="M27.3435 23.8442C24.9254 24.3278 23.4113 26.1519 23.3887 28.5915C23.3887 31.1409 25.2192 33.097 27.7955 33.2728C29.9423 33.4267 31.3661 32.7673 32.4508 31.075C34.7107 27.6025 31.4791 23.053 27.3435 23.8442ZM30.0553 25.8223C31.5243 26.8333 32.0214 28.5256 31.2305 30.0201C29.9423 32.5256 26.2135 32.3278 25.1966 29.7124C24.6542 28.3497 24.8802 27.3607 25.9875 26.2838C27.1627 25.1409 28.7672 24.9651 30.0553 25.8223Z" fill="#454C55"/>
</svg>
