<svg width="100" height="87" viewBox="0 0 100 87" fill="none" xmlns="http://www.w3.org/2000/svg">
<path d="M74.0996 9.2L66.0996 18.5L70.9996 18.8L75.9996 19.1V28.1V37H82.9996H89.9996V28.1V19.1L94.9996 18.8L99.8996 18.5L91.8996 9.2C87.4996 4.2 83.4996 0 82.9996 0C82.4996 0 78.4996 4.2 74.0996 9.2ZM87.4996 10.2L91.0996 14.5L88.5996 14.8C85.9996 15.1 85.9996 15.2 85.9996 24.1V33H82.9996H79.9996V24.1C79.9996 15.2 79.9996 15.1 77.3996 14.8L74.8996 14.5L78.4996 10.2C80.4996 7.9 82.4996 6 82.9996 6C83.4996 6 85.4996 7.9 87.4996 10.2Z" fill="#454C55"/>
<path d="M0 51V87H50H100V55C100 23.7 100 23 98 23C96.1 23 96 23.7 96 48V73L83 62.7L70 52.5L76.1 46.7C82.1 41.2 82.2 41 79.4 41C77.2 41 74 43.2 65.5 50.5C54.5 60.2 51.8 61.7 47.7 60.6C46.5 60.3 36.1 51.9 24.7 42C8.3 27.7 4 23.4 4 21.5V19H32.5C59.9 19 61 18.9 62 17C63.1 15 62.8 15 31.5 15H0V51ZM18.3 41.8C24.8 47.6 29.8 52.6 29.3 53C28.9 53.4 23 58 16.3 63.3L4 73V51.4C4 34.5 4.3 30 5.3 30.6C5.9 31 11.8 36.1 18.3 41.8ZM44.3 63.2C50 66.4 54.4 65.3 62 58.9L66.8 54.8L81.4 66.4C93.2 75.8 96 78.5 96 80.5V83H50H4V80.6C4 78.7 7 75.8 18.6 66.6L33.2 55L37.1 58.2C39.3 60 42.5 62.3 44.3 63.2Z" fill="#454C55"/>
</svg>
