<svg width="40" height="45" viewBox="0 0 40 45" fill="none" xmlns="http://www.w3.org/2000/svg">
<path d="M19.2941 0.362546C18.8352 0.673068 18.6732 1.03534 18.6732 1.81165V2.82084H17.1075C16.1897 2.82084 15.3259 2.9761 15.029 3.18312C14.5701 3.49364 14.5431 3.67477 14.84 5.14975C15.245 7.27165 15.4609 7.47866 17.2155 7.47866C18.4842 7.47866 18.6732 7.53042 18.6732 7.9962C18.6732 8.46198 18.4842 8.51373 17.0536 8.51373C15.5149 8.51373 15.4069 8.56549 15.137 9.21241C14.975 9.62644 14.84 10.5839 14.813 11.3602L14.7591 12.7834L16.7296 12.861L18.6732 12.9387V13.7926C18.6732 14.5171 18.5382 14.7242 17.8904 14.9829C17.4585 15.1382 16.1358 16.1991 14.948 17.3377L12.8155 19.382H11.1688H9.52219L9.44121 18.528L9.36022 17.7L5.06815 17.6224C2.15278 17.5706 0.668105 17.6482 0.425158 17.8553C-0.141719 18.2952 -0.141719 40.3939 0.425158 40.8338C0.668105 41.0409 2.15278 41.1185 5.06815 41.0667L9.36022 40.9891L9.44121 39.2036L9.52219 37.444L11.3578 37.5475C12.9235 37.6251 13.4633 37.7804 14.84 38.6084C15.7308 39.126 16.9186 39.6435 17.4855 39.7729L18.5382 39.9799L18.6732 42.1018C18.8622 44.9482 18.9162 44.9741 23.2892 45C26.3395 45 26.7715 44.9482 27.4193 44.4566C28.0942 43.9391 28.1212 43.8355 28.1212 41.1444V38.3497L29.2279 38.1685C30.0108 38.0391 30.6586 37.7027 31.3065 37.0817C32.2243 36.2019 32.2513 36.1243 32.0893 34.6493C32.0083 33.6142 32.0623 33.0967 32.2513 33.0967C32.4132 33.0967 32.8991 32.7862 33.304 32.398C33.8979 31.8546 34.0599 31.4664 34.0599 30.5608C34.0599 29.9397 33.9249 29.2152 33.7899 28.9305C33.547 28.5424 33.655 28.3095 34.3568 27.7143C35.7335 26.5499 35.8145 24.0916 34.5188 22.5648C34.0059 21.9697 33.8979 21.6074 34.0059 20.6241C34.1139 19.2526 34.0599 19.3044 37.2992 18.968C39.9986 18.7092 39.9986 18.7092 39.9986 16.0698C39.9986 14.6465 39.8906 13.6891 39.6747 13.4821C39.4317 13.2492 37.7041 13.1716 33.601 13.1716H27.8512V10.4545V7.73743H33.331C40.2685 7.73743 39.9986 7.86681 39.9986 4.50283V2.04454L38.9728 1.55288C36.9483 0.569561 33.7899 0.181409 26.6365 0.052025C20.6708 -0.0514822 19.807 -0.0256054 19.2941 0.362546ZM32.7102 2.04454C34.1139 2.1998 35.9225 2.48444 36.7053 2.69146L38.109 3.10549V4.50283V5.92606H32.6562C29.6328 5.92606 27.0414 6.02956 26.8794 6.13307C26.1776 6.57297 25.9616 7.58217 25.9616 10.2992V13.1716H25.1518C24.5309 13.1716 24.207 13.3527 23.8831 13.8961C23.4782 14.5948 23.4242 14.5948 22.0205 14.3619L20.5628 14.1031V13.0163C20.5628 11.5154 20.0499 11.1014 18.2413 11.1014C17.1885 11.1014 16.7836 10.9979 16.7836 10.7391C16.7836 10.4804 17.2695 10.351 18.4303 10.2734C19.456 10.1957 20.1579 10.0146 20.3199 9.7817C20.4548 9.57468 20.5628 8.74662 20.5628 7.94444C20.5628 6.05544 20.1849 5.66729 18.2413 5.66729C16.9726 5.66729 16.7836 5.61553 16.7836 5.14975C16.7836 4.68397 16.9726 4.63222 18.3493 4.63222C19.2131 4.63222 20.0499 4.50283 20.2389 4.32169C20.4278 4.14056 20.5628 3.51951 20.5628 2.89847V1.78577H25.3678C27.9862 1.78577 31.3065 1.91515 32.7102 2.04454ZM38.109 16.018C38.109 16.9754 38.055 17.0272 37.2452 17.1566C31.7384 17.907 30.6316 18.1399 29.5519 18.7092L28.3911 19.3561L27.8782 18.3987C27.5813 17.8811 26.9334 17.0272 26.3935 16.5614C24.6929 14.9829 24.7199 14.9829 31.7654 14.9829H38.109V16.018ZM23.4512 16.639C24.5039 17.1566 25.6377 18.2693 26.3395 19.5114C26.8524 20.4688 26.9064 20.9863 26.9874 26.3946C27.0684 31.1818 27.0144 32.4239 26.6635 33.2002C26.2046 34.2611 25.7997 34.3646 24.8009 33.6142C23.7751 32.8379 23.0193 30.5608 22.6683 27.3003C22.4254 24.7126 22.1824 24.0657 21.5886 24.0398C21.3456 24.0398 21.0217 24.4021 19.9419 25.9547C18.9971 27.352 17.7014 28.1542 15.9738 28.3612C14.6511 28.5424 14.1112 29.2152 14.813 29.8621C15.245 30.302 16.3787 30.302 18.0793 29.8362L18.6732 29.6809V33.8471C18.6732 38.7637 18.8622 38.5826 15.3529 36.8488C13.2474 35.8137 12.7885 35.6844 11.2228 35.6844H9.49519L9.54918 28.4906L9.63017 21.3227L11.5468 21.1934C13.7603 21.0381 14.3541 20.7276 16.1358 18.7351C17.8364 16.8461 19.699 15.9404 21.4266 16.1215C22.1285 16.1991 23.0463 16.432 23.4512 16.639ZM7.6056 29.3445V39.3071H4.77122H1.93683V29.3445V19.382H4.77122H7.6056V29.3445ZM31.9813 20.9346C31.8734 21.064 31.4414 21.2451 31.0365 21.3227C30.3617 21.478 30.2807 21.4262 30.2807 20.8311C30.2807 20.3135 30.4427 20.1324 31.1715 19.9513C31.9003 19.7701 32.0353 19.796 32.1163 20.2359C32.1703 20.5206 32.1163 20.8311 31.9813 20.9346ZM32.9801 23.781C33.601 24.3762 33.709 25.9029 33.1961 26.2911C32.6022 26.731 31.4684 26.8863 30.1727 26.731L28.931 26.5499V24.9196V23.2635H30.6856C32.0893 23.2635 32.5482 23.367 32.9801 23.781ZM21.0757 29.9138C21.4536 32.0357 22.4794 34.1318 23.5052 34.9857C23.9371 35.3221 24.477 35.969 24.7199 36.4348C24.9628 36.8747 25.3948 37.3922 25.6917 37.5734C26.1776 37.8321 26.2316 38.1685 26.2316 40.5233V43.1886H23.3972H20.5628V35.6844C20.5628 31.5441 20.6168 28.1801 20.6708 28.1801C20.7248 28.1801 20.9137 28.9564 21.0757 29.9138ZM31.6304 29.2152C32.2783 29.8362 32.3323 30.8454 31.7654 31.2853C31.5494 31.4664 30.8206 31.6735 30.1457 31.7511L28.931 31.8805V30.2761V28.6976H30.0108C30.7396 28.6976 31.2795 28.8788 31.6304 29.2152ZM29.8488 34.0282C30.8746 35.0116 29.9298 36.4607 28.2561 36.4607C26.8254 36.4607 26.6365 36.1243 27.5543 35.2186C28.0132 34.7787 28.3911 34.2353 28.3911 34.0282C28.3911 33.4848 29.3089 33.4848 29.8488 34.0282Z" fill="#454C55"/>
</svg>
