<svg width="100" height="100" viewBox="0 0 100 100" fill="none" xmlns="http://www.w3.org/2000/svg">
<path d="M70.4998 1.39999C56.0998 5.99999 49.8998 14.1 52.8998 24.2C54.3998 29.1 53.8998 29.9 51.2998 26.6C48.1998 22.7 42.1998 19.2 37.5998 18.5C29.5998 17.3 25.6998 19.2 14.3998 30.2C8.79982 35.7 3.39982 41.7 2.49983 43.6C-1.30018 51.6 -0.300175 58.7 5.59982 66.3L9.29982 71L5.19982 75.4C-1.40018 82.5 -1.60018 90.1 4.39983 95.9C10.6998 102 18.9998 100.8 26.8998 92.7C28.7998 90.7 31.5998 88.9 33.4998 88.6C35.2998 88.2 37.2998 87.3 37.9998 86.5C38.6998 85.6 40.8998 85 43.0998 85C46.2998 85 47.3998 84.4 49.6998 81.5C51.2998 79.5 53.3998 78 54.5998 78C57.1998 78 61.9998 74.4 61.9998 72.4C61.9998 71.6 62.6998 71 63.5998 71C66.5998 71 71.6998 67.9 72.8998 65.4C74.7998 61.1 74.1998 58.2 70.2998 53.9L66.6998 49.9L68.6998 47.8C70.5998 46 71.1998 45.9 74.0998 46.9C83.8998 50.3 91.1998 46.4 96.3998 35C100.4 26.1 101.1 17 97.6998 17C96.9998 17 93.9998 19.5 90.9998 22.5C87.9998 25.5 85.0998 28 84.4998 28C83.8998 28 80.7998 25.3 77.4998 22L71.5998 16.1L77.9998 9.39999C83.9998 3.09999 84.2998 2.69999 82.4998 1.39999C80.1998 -0.300011 75.7998 -0.300011 70.4998 1.39999ZM72.6998 8.8C69.7998 11.7 67.9998 14.5 67.9998 15.9C67.9998 17.4 70.3998 20.6 74.6998 25.1C82.7998 33.5 84.6998 33.8 91.3998 27.9C96.6998 23.2 97.0998 24.2 93.0998 32.5C88.0998 43.1 82.6998 45.9 73.8998 42.4L69.7998 40.7L66.6998 43.9L63.5998 47L58.2998 41.8L52.9998 36.6L56.0998 33.4L59.2998 30.1L57.5998 26C55.2998 20.2 55.5998 16.7 58.5998 13C61.9998 8.99999 70.9998 4.39999 75.9998 4.09999C76.7998 3.99999 75.2998 6.19999 72.6998 8.8ZM40.3998 23.4C43.8998 24.9 50.9998 30.7 50.9998 32.1C50.9998 32.6 50.0998 33 48.9998 33C47.8998 33 46.9998 33.5 46.9998 34.2C46.9998 34.9 52.1998 40.6 58.4998 47C70.0998 58.8 71.7998 61.8 68.7998 64.8C67.2998 66.3 63.4998 66.4 60.8998 65C59.1998 64 58.9998 64.3 58.9998 67.4C58.9998 70.1 58.3998 71.4 56.3998 72.6C54.0998 74.2 53.5998 74.2 50.3998 72.7L46.9998 71L47.5998 73.5C48.8998 78.8 43.7998 82.6 38.8998 80C37.5998 79.3 36.9998 79.3 36.9998 80C36.9998 81.6 33.1998 85 31.2998 85C29.0998 85 7.49983 63.6 5.49983 59.4C1.79982 51.5 4.59982 44.6 16.1998 33.3C27.5998 22.3 32.6998 20.2 40.3998 23.4ZM25.8998 86.7C26.6998 87.2 20.5998 93.1 17.7998 94.6C13.5998 96.8 11.0998 96.3 7.39982 92.6C2.49982 87.7 2.99982 84 9.29982 77.3L12.3998 74L18.8998 80.2C22.4998 83.6 25.6998 86.5 25.8998 86.7Z" fill="#454C55"/>
</svg>
